<?xml version="1.0" encoding="UTF-8" standalone="no"?>
<!-- Created with Inkscape (http://www.inkscape.org/) -->

<svg
   version="1.1"
   id="svg1"
   width="650.23999"
   height="307.20001"
   viewBox="0 0 650.23999 307.20001"
   sodipodi:docname="rex_logo.svg"
   xml:space="preserve"
   inkscape:version="1.3.2 (091e20e, 2023-11-25)"
   inkscape:export-filename="rex_logo.png"
   inkscape:export-xdpi="300"
   inkscape:export-ydpi="300"
   xmlns:inkscape="http://www.inkscape.org/namespaces/inkscape"
   xmlns:sodipodi="http://sodipodi.sourceforge.net/DTD/sodipodi-0.dtd"
   xmlns="http://www.w3.org/2000/svg"
   xmlns:svg="http://www.w3.org/2000/svg"><defs
     id="defs1" /><sodipodi:namedview
     id="namedview1"
     pagecolor="#ffffff"
     bordercolor="#000000"
     borderopacity="0.25"
     inkscape:showpageshadow="2"
     inkscape:pageopacity="0.0"
     inkscape:pagecheckerboard="0"
     inkscape:deskcolor="#d1d1d1"
     showguides="true"
     inkscape:zoom="1.3523591"
     inkscape:cx="546.08279"
     inkscape:cy="202.60891"
     inkscape:window-width="3440"
     inkscape:window-height="1327"
     inkscape:window-x="0"
     inkscape:window-y="25"
     inkscape:window-maximized="0"
     inkscape:current-layer="g1"
     inkscape:export-bgcolor="#ffffff00"><sodipodi:guide
       position="5.8624002,85.405869"
       orientation="1,0"
       id="guide23"
       inkscape:locked="false" /><sodipodi:guide
       position="110.43448,98.056721"
       orientation="1,0"
       id="guide1"
       inkscape:locked="false" /></sodipodi:namedview><g
     inkscape:groupmode="layer"
     inkscape:label="Image"
     id="g1"><path
       style="opacity:1;fill:#4c3f3f;fill-opacity:1"
       d="m 234.32454,154.47445 c 5.30256,7.74251 8.49532,11.60322 12.00453,16.92213 7.32272,11.09903 12.129,18.31873 12.68298,18.91951 0.76346,0.82797 1.25261,1.09696 2.40229,1.0985 2.29591,0.003 3.89931,-1.90876 5.19856,-3.04132 1.1748,-1.02409 4.49274,-4.19481 4.49274,-4.19481 -0.48425,-1.73723 -0.38872,0.52779 -2.0044,0.72917 -1.51741,0.18914 -4.89782,-4.55033 -4.89782,-4.55033 0,0 -3.31568,-3.85305 -8.7625,-11.93573 -3.27593,-4.86124 -10.2797,-15.8445 -10.2797,-15.8445 0,0 7.75333,1.01179 11.63,1.51769 2.96137,0.38645 8.86161,1.53575 8.86161,1.53575 0,0 2.23854,-2.27382 3.46546,-3.3892 1.31634,-1.19667 4.1643,-3.54696 4.1643,-3.54696 0,0 -9.93664,0.25601 -14.96955,0.3195 -4.13823,0.0522 -12.54385,0.0273 -12.54385,0.0273 l 20.62549,-15.63047 c -0.594,-0.78563 -0.84607,-1.23249 -1.26911,-2.1399 z"
       id="path20"
       sodipodi:nodetypes="csssscscscscscscccc" /><path
       id="path21"
       style="opacity:1;fill:#4c3f3f;fill-opacity:1"
       d="m 261.30415,103.50216 c -5.50166,3.27489 -9.38202,8.45272 -9.38202,8.45272 l 0.85364,0.48203 c 1.05944,-1.70676 2.96242,-4.1615 3.86121,-4.20241 0.88053,-0.0401 3.59087,0.1899 6.56427,5.68185 6.22259,11.49332 11.94796,21.86715 11.94796,21.86715 l 8.88169,15.99414 -22.11125,23.08443 3.44578,4.11029 19.94547,-25.27945 c 0,0 4.57649,9.00528 7.30519,14.08624 8.4863,15.80181 10.6978,23.93033 14.29669,23.90091 3.54677,-0.029 6.28346,-2.26101 8.98895,-4.62354 2.23971,-1.95579 5.76869,-5.78041 5.76869,-5.78041 l -0.52204,-0.86679 c 0,0 -1.43782,2.06217 -2.46535,2.88587 -0.96456,0.77322 -2.23937,2.09225 -4.27342,1.99267 -2.25602,-0.11044 -4.33915,-3.21737 -5.30846,-4.80528 -6.97935,-11.43338 -18.3241,-33.05507 -18.3241,-33.05507 l 31.07935,-34.48117 -6.21315,0.16536 -26.04967,31.76699 c -0.94981,-1.78582 -5.38313,-10.8013 -13.01868,-26.08535 -4.69171,-9.39136 -6.56838,-16.83431 -10.12023,-16.83365 -2.55216,4.8e-4 -3.64719,0.6476 -5.15052,1.54247 z"
       sodipodi:nodetypes="sccsscccccsssccsssccccsss" /><path
       style="fill:#000000"
       id="path24" /><path
       id="rect24"
       style="opacity:0.585973;fill:#0000ff;fill-opacity:1;stroke-width:0.517964"
       d="M 192.71875 68.171875 L 192.71875 75.726562 L 185.1875 75.726562 L 185.1875 96.802734 L 185.1875 108.95312 L 179.96289 108.95312 L 179.96289 117.2832 L 173.92383 117.2832 L 173.92383 121.79688 L 167.67188 121.79688 L 167.67188 128.04492 L 162.44922 128.04492 L 162.44922 136.0293 L 150.46484 136.0293 L 150.46484 128.74023 L 145.24023 128.74023 L 145.24023 122.14453 L 140.01758 122.14453 L 140.01758 108.95312 L 134.17969 108.95312 L 134.17969 142.27734 L 139.0957 142.27734 L 139.0957 147.13672 L 144.93359 147.13672 L 144.93359 153.73242 L 150.46484 153.73242 L 150.46484 162.06445 L 157.5332 162.18359 L 157.5332 169.12695 L 162.75586 169.12695 L 162.93555 193.44141 C 162.93555 193.44141 170.30473 193.46289 174.125 193.46289 L 174.125 186.71094 L 167.67188 186.71094 L 167.67188 181.15625 L 174.125 181.15625 L 174.125 174.5625 L 180.89062 174.5625 L 180.99219 170.66602 L 185.40039 170.66602 L 185.40039 178.19727 L 189.42773 178.19727 L 189.42773 178.17773 L 195.85742 178.2168 L 195.85742 173.61523 L 189.42773 173.57617 L 189.42773 170.66602 C 191.50187 170.65082 193.57668 170.69758 195.65039 170.64648 L 198.75195 116.80078 L 214.49805 108.38672 L 233.63086 108.45703 L 233.89258 100.96875 L 214.37891 100.96875 L 214.37891 96.802734 L 253.35156 96.802734 L 253.35156 75.726562 L 235.11719 75.726562 L 235.11719 68.171875 L 192.71875 68.171875 z M 198.33789 73.779297 L 205.40625 73.779297 L 205.40625 82.111328 L 198.33789 82.111328 L 198.33789 73.779297 z " /><path
       id="path17"
       style="opacity:1;fill:#4c3f3f;fill-opacity:1"
       d="m 202.8849,119.26368 -1.40234,31.42383 -2.75977,41.40625 9.94336,-4.85547 2.44336,-36.49804 1.88282,-26.875 c 0,0 5.52229,3.37598 10.81678,7.06661 5.12267,3.57086 10.06017,7.54667 10.06017,7.54667 l -19.07617,15.11914 0.0586,0.18945 -0.0586,0.043 c 6.82758,11.94616 11.93887,21.56508 19.59173,35.19718 0,0 1.6473,3.07114 3.64459,3.18172 1.60155,0.0887 3.38559,-0.64133 5.60946,-2.13868 2.22388,-1.49735 5.54471,-4.74068 5.54471,-4.74068 l -0.36494,-0.63171 c 0,0 -0.71549,1.62756 -1.72379,1.57602 -0.73914,-0.0378 -1.89793,-1.34843 -2.36036,-1.92627 -5.04615,-6.30556 -7.22206,-10.49668 -10.4028,-16.06986 -5.3326,-9.3436 -10.17973,-19.72656 -10.17973,-19.72656 l 11.33253,-8.94186 8.55469,-6.47266 c 0,0 -8.85036,-5.43315 -14.67778,-9.2162 -8.72629,-5.66495 -15.62886,-10.60607 -15.62886,-10.60607 z"
       sodipodi:nodetypes="ccccccscccccszccssscccscc" /><path
       style="fill:#e6e6e6;fill-opacity:1"
       d="m 507.14485,183.30257 c 5.30256,7.74251 8.49532,11.60322 12.00453,16.92213 7.32272,11.09903 12.129,18.31873 12.68298,18.91951 0.76346,0.82797 1.25261,1.09696 2.40229,1.0985 2.29591,0.003 3.89931,-1.90876 5.19856,-3.04132 1.1748,-1.02409 4.49274,-4.19481 4.49274,-4.19481 -0.48425,-1.73723 -0.38872,0.52779 -2.0044,0.72917 -1.51741,0.18915 -4.89782,-4.55033 -4.89782,-4.55033 0,0 -3.31568,-3.85304 -8.7625,-11.93573 -3.27593,-4.86124 -10.2797,-15.8445 -10.2797,-15.8445 0,0 7.75333,1.01179 11.63,1.51769 2.96137,0.38645 8.86161,1.53575 8.86161,1.53575 0,0 2.23854,-2.27382 3.46546,-3.3892 1.31634,-1.19667 4.1643,-3.54696 4.1643,-3.54696 0,0 -9.93664,0.25601 -14.96955,0.3195 -4.13823,0.0522 -12.54385,0.0273 -12.54385,0.0273 l 20.62549,-15.63047 c -0.594,-0.78563 -0.84607,-1.23249 -1.26911,-2.1399 z"
       id="path20-4"
       sodipodi:nodetypes="csssscscscscscscccc" /><path
       id="path21-8"
       style="fill:#e6e6e6;fill-opacity:1"
       d="m 534.12446,132.33028 c -5.50166,3.27489 -9.38202,8.45272 -9.38202,8.45272 l 0.85364,0.48203 c 1.05944,-1.70676 2.96242,-4.1615 3.86121,-4.20241 0.88053,-0.0401 3.59087,0.1899 6.56427,5.68185 6.22259,11.49332 11.94796,21.86715 11.94796,21.86715 l 8.88169,15.99414 -22.11125,23.08443 3.44578,4.11029 19.94547,-25.27945 c 0,0 4.57649,9.00528 7.30519,14.08624 8.4863,15.80181 10.6978,23.93033 14.29669,23.90091 3.54677,-0.029 6.28346,-2.26101 8.98895,-4.62354 2.23971,-1.95579 5.76869,-5.7804 5.76869,-5.7804 l -0.52204,-0.8668 c 0,0 -1.43782,2.06218 -2.46535,2.88588 -0.96456,0.77322 -2.23937,2.09225 -4.27342,1.99267 -2.25602,-0.11045 -4.33915,-3.21737 -5.30846,-4.80528 -6.97935,-11.43338 -18.3241,-33.05508 -18.3241,-33.05508 l 31.07935,-34.48116 -6.21315,0.16536 -26.04967,31.76699 c -0.94981,-1.78582 -5.38313,-10.8013 -13.01868,-26.08535 -4.69171,-9.39136 -6.56838,-16.83431 -10.12023,-16.83365 -2.55216,4.7e-4 -3.64719,0.6476 -5.15052,1.54246 z"
       sodipodi:nodetypes="sccsscccccsssccsssccccsss" /><path
       id="rect24-3"
       style="opacity:0.585973;fill:#bd00bd;fill-opacity:1;stroke-width:0.517964"
       d="m 465.53906,97 v 7.55469 h -7.53125 v 21.07617 12.15039 h -5.22461 v 8.33007 h -6.03906 v 4.51368 h -6.25195 v 6.24804 h -5.22266 v 7.98438 h -11.98438 v -7.28907 h -5.22461 v -6.5957 h -5.22265 V 137.78124 H 407 v 33.32422 h 4.91601 v 4.85938 h 5.83789 v 6.5957 h 5.53125 v 8.33203 l 7.06836,0.11914 v 6.94336 h 5.22266 l 0.17969,24.31446 c 0,0 7.36918,0.0215 11.18945,0.0215 v -6.75195 h -6.45312 v -5.55469 h 6.45312 v -6.59375 h 6.76562 l 0.10157,-3.89648 h 4.4082 v 7.53125 h 4.02734 v -0.0195 l 6.42969,0.0391 v -4.60157 l -6.42969,-0.0391 v -2.91015 c 2.07414,-0.0152 4.14895,0.0316 6.22266,-0.0195 l 3.10156,-53.8457 15.7461,-8.41406 19.13281,0.0703 0.26172,-7.48828 h -19.51367 v -4.16601 h 38.97265 V 104.55469 H 507.9375 V 97 Z m 5.61914,5.60742 h 7.06836 v 8.33203 h -7.06836 z" /><path
       id="path17-9"
       style="fill:#e6e6e6;fill-opacity:1"
       d="m 475.70521,148.0918 -1.40234,31.42383 -2.75977,41.40625 9.94336,-4.85547 2.44336,-36.49804 1.88282,-26.875 c 0,0 5.52229,3.37598 10.81678,7.06661 5.12267,3.57086 10.06017,7.54667 10.06017,7.54667 l -19.07617,15.11914 0.0586,0.18945 -0.0586,0.043 c 6.82758,11.94616 11.93887,21.56508 19.59173,35.19718 0,0 1.6473,3.07114 3.64459,3.18172 1.60155,0.0887 3.38559,-0.64133 5.60946,-2.13867 2.22388,-1.49736 5.54471,-4.74068 5.54471,-4.74068 l -0.36494,-0.63171 c 0,0 -0.71549,1.62755 -1.72379,1.57602 -0.73914,-0.0378 -1.89793,-1.34844 -2.36036,-1.92627 -5.04615,-6.30556 -7.22206,-10.49668 -10.4028,-16.06986 -5.3326,-9.3436 -10.17973,-19.72656 -10.17973,-19.72656 l 11.33253,-8.94186 8.55469,-6.47266 c 0,0 -8.85036,-5.43315 -14.67778,-9.2162 -8.72629,-5.66495 -15.62886,-10.60607 -15.62886,-10.60607 z"
       sodipodi:nodetypes="ccccccscccccszccssscccscc" /></g></svg>
